<mxfile host="app.diagrams.net" modified="2024-05-18T12:32:23.161Z" agent="Mozilla/5.0 (Windows NT 10.0; Win64; x64) AppleWebKit/537.36 (KHTML, like Gecko) Chrome/124.0.0.0 Safari/537.36" etag="1yoBuzS-C9DNPkPiSRie" version="22.1.18" type="github">
  <diagram name="Page-1" id="OXCh3sUK8tZ1hlXIYTLy">
    <mxGraphModel dx="936" dy="1066" grid="1" gridSize="10" guides="1" tooltips="1" connect="1" arrows="1" fold="1" page="1" pageScale="1" pageWidth="850" pageHeight="1100" math="0" shadow="0">
      <root>
        <mxCell id="0" />
        <mxCell id="1" parent="0" />
      </root>
    </mxGraphModel>
  </diagram>
</mxfile>
